<mxfile host="65bd71144e">
    <diagram id="3vY-JiJAYiSD1fFaTg6u" name="Page-1">
        <mxGraphModel dx="271" dy="1583" grid="1" gridSize="10" guides="1" tooltips="1" connect="1" arrows="1" fold="1" page="1" pageScale="1" pageWidth="827" pageHeight="1169" math="0" shadow="0">
            <root>
                <mxCell id="0"/>
                <mxCell id="1" parent="0"/>
                <mxCell id="2" value="User" style="swimlane;fontStyle=0;childLayout=stackLayout;horizontal=1;startSize=26;fillColor=none;horizontalStack=0;resizeParent=1;resizeParentMax=0;resizeLast=0;collapsible=1;marginBottom=0;" parent="1" vertex="1">
                    <mxGeometry x="100" y="50" width="150" height="182" as="geometry"/>
                </mxCell>
                <mxCell id="3" value="+ _id*: ObjectId" style="text;strokeColor=none;fillColor=none;align=left;verticalAlign=top;spacingLeft=4;spacingRight=4;overflow=hidden;rotatable=0;points=[[0,0.5],[1,0.5]];portConstraint=eastwest;" parent="2" vertex="1">
                    <mxGeometry y="26" width="150" height="26" as="geometry"/>
                </mxCell>
                <mxCell id="4" value="+ name*: String" style="text;strokeColor=none;fillColor=none;align=left;verticalAlign=top;spacingLeft=4;spacingRight=4;overflow=hidden;rotatable=0;points=[[0,0.5],[1,0.5]];portConstraint=eastwest;" parent="2" vertex="1">
                    <mxGeometry y="52" width="150" height="26" as="geometry"/>
                </mxCell>
                <mxCell id="5" value="+ email*: String" style="text;strokeColor=none;fillColor=none;align=left;verticalAlign=top;spacingLeft=4;spacingRight=4;overflow=hidden;rotatable=0;points=[[0,0.5],[1,0.5]];portConstraint=eastwest;" parent="2" vertex="1">
                    <mxGeometry y="78" width="150" height="26" as="geometry"/>
                </mxCell>
                <mxCell id="7" value="+ password_hash*: String" style="text;strokeColor=none;fillColor=none;align=left;verticalAlign=top;spacingLeft=4;spacingRight=4;overflow=hidden;rotatable=0;points=[[0,0.5],[1,0.5]];portConstraint=eastwest;" parent="2" vertex="1">
                    <mxGeometry y="104" width="150" height="26" as="geometry"/>
                </mxCell>
                <mxCell id="25" value="+ is_admin*: Boolean" style="text;strokeColor=none;fillColor=none;align=left;verticalAlign=top;spacingLeft=4;spacingRight=4;overflow=hidden;rotatable=0;points=[[0,0.5],[1,0.5]];portConstraint=eastwest;" parent="2" vertex="1">
                    <mxGeometry y="130" width="150" height="26" as="geometry"/>
                </mxCell>
                <mxCell id="9" value="+ created_at*: Date" style="text;strokeColor=none;fillColor=none;align=left;verticalAlign=top;spacingLeft=4;spacingRight=4;overflow=hidden;rotatable=0;points=[[0,0.5],[1,0.5]];portConstraint=eastwest;" parent="2" vertex="1">
                    <mxGeometry y="156" width="150" height="26" as="geometry"/>
                </mxCell>
                <mxCell id="10" value="Assessment" style="swimlane;fontStyle=0;childLayout=stackLayout;horizontal=1;startSize=26;fillColor=none;horizontalStack=0;resizeParent=1;resizeParentMax=0;resizeLast=0;collapsible=1;marginBottom=0;" parent="1" vertex="1">
                    <mxGeometry x="360" y="50" width="140" height="208" as="geometry"/>
                </mxCell>
                <mxCell id="11" value="+ _id*: ObjectId" style="text;strokeColor=none;fillColor=none;align=left;verticalAlign=top;spacingLeft=4;spacingRight=4;overflow=hidden;rotatable=0;points=[[0,0.5],[1,0.5]];portConstraint=eastwest;" parent="10" vertex="1">
                    <mxGeometry y="26" width="140" height="26" as="geometry"/>
                </mxCell>
                <mxCell id="12" value="+ user*: ObjectId" style="text;strokeColor=none;fillColor=none;align=left;verticalAlign=top;spacingLeft=4;spacingRight=4;overflow=hidden;rotatable=0;points=[[0,0.5],[1,0.5]];portConstraint=eastwest;" parent="10" vertex="1">
                    <mxGeometry y="52" width="140" height="26" as="geometry"/>
                </mxCell>
                <mxCell id="19" value="+ name*: String" style="text;strokeColor=none;fillColor=none;align=left;verticalAlign=top;spacingLeft=4;spacingRight=4;overflow=hidden;rotatable=0;points=[[0,0.5],[1,0.5]];portConstraint=eastwest;" parent="10" vertex="1">
                    <mxGeometry y="78" width="140" height="26" as="geometry"/>
                </mxCell>
                <mxCell id="13" value="+ object*: String" style="text;strokeColor=none;fillColor=none;align=left;verticalAlign=top;spacingLeft=4;spacingRight=4;overflow=hidden;rotatable=0;points=[[0,0.5],[1,0.5]];portConstraint=eastwest;" parent="10" vertex="1">
                    <mxGeometry y="104" width="140" height="26" as="geometry"/>
                </mxCell>
                <mxCell id="15" value="+ description: String" style="text;strokeColor=none;fillColor=none;align=left;verticalAlign=top;spacingLeft=4;spacingRight=4;overflow=hidden;rotatable=0;points=[[0,0.5],[1,0.5]];portConstraint=eastwest;" parent="10" vertex="1">
                    <mxGeometry y="130" width="140" height="26" as="geometry"/>
                </mxCell>
                <mxCell id="14" value="+ created_at*: Date" style="text;strokeColor=none;fillColor=none;align=left;verticalAlign=top;spacingLeft=4;spacingRight=4;overflow=hidden;rotatable=0;points=[[0,0.5],[1,0.5]];portConstraint=eastwest;" parent="10" vertex="1">
                    <mxGeometry y="156" width="140" height="26" as="geometry"/>
                </mxCell>
                <mxCell id="16" value="+ finished_at: Date" style="text;strokeColor=none;fillColor=none;align=left;verticalAlign=top;spacingLeft=4;spacingRight=4;overflow=hidden;rotatable=0;points=[[0,0.5],[1,0.5]];portConstraint=eastwest;" parent="10" vertex="1">
                    <mxGeometry y="182" width="140" height="26" as="geometry"/>
                </mxCell>
                <mxCell id="22" value="n" style="endArrow=open;html=1;endSize=12;startArrow=diamondThin;startSize=14;startFill=1;edgeStyle=orthogonalEdgeStyle;align=left;verticalAlign=bottom;exitX=0;exitY=0.5;exitDx=0;exitDy=0;" parent="1" source="12" edge="1">
                    <mxGeometry x="-0.6738" y="-5" relative="1" as="geometry">
                        <mxPoint x="410" y="127.58" as="sourcePoint"/>
                        <mxPoint x="250" y="127.58" as="targetPoint"/>
                        <mxPoint as="offset"/>
                    </mxGeometry>
                </mxCell>
                <mxCell id="26" value="Answer" style="swimlane;fontStyle=0;childLayout=stackLayout;horizontal=1;startSize=26;fillColor=none;horizontalStack=0;resizeParent=1;resizeParentMax=0;resizeLast=0;collapsible=1;marginBottom=0;" parent="1" vertex="1">
                    <mxGeometry x="650" y="70" width="140" height="182" as="geometry"/>
                </mxCell>
                <mxCell id="27" value="+ _id*: ObjectId" style="text;strokeColor=none;fillColor=none;align=left;verticalAlign=top;spacingLeft=4;spacingRight=4;overflow=hidden;rotatable=0;points=[[0,0.5],[1,0.5]];portConstraint=eastwest;" parent="26" vertex="1">
                    <mxGeometry y="26" width="140" height="26" as="geometry"/>
                </mxCell>
                <mxCell id="28" value="+ assessment*: ObjectId" style="text;strokeColor=none;fillColor=none;align=left;verticalAlign=top;spacingLeft=4;spacingRight=4;overflow=hidden;rotatable=0;points=[[0,0.5],[1,0.5]];portConstraint=eastwest;" parent="26" vertex="1">
                    <mxGeometry y="52" width="140" height="26" as="geometry"/>
                </mxCell>
                <mxCell id="29" value="+ question*: ObjectId" style="text;strokeColor=none;fillColor=none;align=left;verticalAlign=top;spacingLeft=4;spacingRight=4;overflow=hidden;rotatable=0;points=[[0,0.5],[1,0.5]];portConstraint=eastwest;" parent="26" vertex="1">
                    <mxGeometry y="78" width="140" height="26" as="geometry"/>
                </mxCell>
                <mxCell id="30" value="+ answer*: String" style="text;strokeColor=none;fillColor=none;align=left;verticalAlign=top;spacingLeft=4;spacingRight=4;overflow=hidden;rotatable=0;points=[[0,0.5],[1,0.5]];portConstraint=eastwest;" parent="26" vertex="1">
                    <mxGeometry y="104" width="140" height="26" as="geometry"/>
                </mxCell>
                <mxCell id="31" value="+ comment: String" style="text;strokeColor=none;fillColor=none;align=left;verticalAlign=top;spacingLeft=4;spacingRight=4;overflow=hidden;rotatable=0;points=[[0,0.5],[1,0.5]];portConstraint=eastwest;" parent="26" vertex="1">
                    <mxGeometry y="130" width="140" height="26" as="geometry"/>
                </mxCell>
                <mxCell id="32" value="+ answered_at*: Date" style="text;strokeColor=none;fillColor=none;align=left;verticalAlign=top;spacingLeft=4;spacingRight=4;overflow=hidden;rotatable=0;points=[[0,0.5],[1,0.5]];portConstraint=eastwest;" parent="26" vertex="1">
                    <mxGeometry y="156" width="140" height="26" as="geometry"/>
                </mxCell>
                <mxCell id="33" value="1" style="endArrow=open;html=1;endSize=12;startArrow=diamondThin;startSize=14;startFill=1;edgeStyle=orthogonalEdgeStyle;align=left;verticalAlign=bottom;entryX=1.007;entryY=0.231;entryDx=0;entryDy=0;entryPerimeter=0;" parent="1" target="13" edge="1">
                    <mxGeometry x="-0.8658" y="-10" relative="1" as="geometry">
                        <mxPoint x="650" y="160" as="sourcePoint"/>
                        <mxPoint x="510" y="160" as="targetPoint"/>
                        <mxPoint as="offset"/>
                    </mxGeometry>
                </mxCell>
                <mxCell id="34" value="Question" style="swimlane;fontStyle=0;childLayout=stackLayout;horizontal=1;startSize=26;fillColor=none;horizontalStack=0;resizeParent=1;resizeParentMax=0;resizeLast=0;collapsible=1;marginBottom=0;" parent="1" vertex="1">
                    <mxGeometry x="638" y="400" width="170" height="130" as="geometry"/>
                </mxCell>
                <mxCell id="36" value="+ criterio*: ObjectId" style="text;strokeColor=none;fillColor=none;align=left;verticalAlign=top;spacingLeft=4;spacingRight=4;overflow=hidden;rotatable=0;points=[[0,0.5],[1,0.5]];portConstraint=eastwest;" parent="34" vertex="1">
                    <mxGeometry y="26" width="170" height="26" as="geometry"/>
                </mxCell>
                <mxCell id="42" value="+ order*: Number" style="text;strokeColor=none;fillColor=none;align=left;verticalAlign=top;spacingLeft=4;spacingRight=4;overflow=hidden;rotatable=0;points=[[0,0.5],[1,0.5]];portConstraint=eastwest;" parent="34" vertex="1">
                    <mxGeometry y="52" width="170" height="26" as="geometry"/>
                </mxCell>
                <mxCell id="37" value="+ enunciation*: String" style="text;strokeColor=none;fillColor=none;align=left;verticalAlign=top;spacingLeft=4;spacingRight=4;overflow=hidden;rotatable=0;points=[[0,0.5],[1,0.5]];portConstraint=eastwest;" parent="34" vertex="1">
                    <mxGeometry y="78" width="170" height="26" as="geometry"/>
                </mxCell>
                <mxCell id="38" value="+ glossary_refs*: [ObjectId]" style="text;strokeColor=none;fillColor=none;align=left;verticalAlign=top;spacingLeft=4;spacingRight=4;overflow=hidden;rotatable=0;points=[[0,0.5],[1,0.5]];portConstraint=eastwest;" parent="34" vertex="1">
                    <mxGeometry y="104" width="170" height="26" as="geometry"/>
                </mxCell>
                <mxCell id="40" value="1" style="endArrow=open;html=1;endSize=12;startArrow=diamondThin;startSize=14;startFill=0;edgeStyle=orthogonalEdgeStyle;align=left;verticalAlign=bottom;entryX=0.5;entryY=0;entryDx=0;entryDy=0;exitX=0.523;exitY=0.978;exitDx=0;exitDy=0;exitPerimeter=0;" parent="1" source="32" target="34" edge="1">
                    <mxGeometry x="-0.7503" y="-13" relative="1" as="geometry">
                        <mxPoint x="790" y="340" as="sourcePoint"/>
                        <mxPoint x="630" y="340" as="targetPoint"/>
                        <mxPoint as="offset"/>
                    </mxGeometry>
                </mxCell>
                <mxCell id="43" value="Criterion" style="swimlane;fontStyle=0;childLayout=stackLayout;horizontal=1;startSize=26;fillColor=none;horizontalStack=0;resizeParent=1;resizeParentMax=0;resizeLast=0;collapsible=1;marginBottom=0;" parent="1" vertex="1">
                    <mxGeometry x="920" y="400" width="140" height="130" as="geometry"/>
                </mxCell>
                <mxCell id="44" value="+ _id*: ObjectId" style="text;strokeColor=none;fillColor=none;align=left;verticalAlign=top;spacingLeft=4;spacingRight=4;overflow=hidden;rotatable=0;points=[[0,0.5],[1,0.5]];portConstraint=eastwest;" parent="43" vertex="1">
                    <mxGeometry y="26" width="140" height="26" as="geometry"/>
                </mxCell>
                <mxCell id="45" value="+ order*: Number" style="text;strokeColor=none;fillColor=none;align=left;verticalAlign=top;spacingLeft=4;spacingRight=4;overflow=hidden;rotatable=0;points=[[0,0.5],[1,0.5]];portConstraint=eastwest;" parent="43" vertex="1">
                    <mxGeometry y="52" width="140" height="26" as="geometry"/>
                </mxCell>
                <mxCell id="47" value="+ name*: String" style="text;strokeColor=none;fillColor=none;align=left;verticalAlign=top;spacingLeft=4;spacingRight=4;overflow=hidden;rotatable=0;points=[[0,0.5],[1,0.5]];portConstraint=eastwest;" parent="43" vertex="1">
                    <mxGeometry y="78" width="140" height="26" as="geometry"/>
                </mxCell>
                <mxCell id="46" value="+ description*: String" style="text;strokeColor=none;fillColor=none;align=left;verticalAlign=top;spacingLeft=4;spacingRight=4;overflow=hidden;rotatable=0;points=[[0,0.5],[1,0.5]];portConstraint=eastwest;" parent="43" vertex="1">
                    <mxGeometry y="104" width="140" height="26" as="geometry"/>
                </mxCell>
                <mxCell id="50" value="Glossary" style="swimlane;fontStyle=0;childLayout=stackLayout;horizontal=1;startSize=26;fillColor=none;horizontalStack=0;resizeParent=1;resizeParentMax=0;resizeLast=0;collapsible=1;marginBottom=0;" parent="1" vertex="1">
                    <mxGeometry x="350" y="393" width="140" height="104" as="geometry"/>
                </mxCell>
                <mxCell id="51" value="+ _id*: ObjectId" style="text;strokeColor=none;fillColor=none;align=left;verticalAlign=top;spacingLeft=4;spacingRight=4;overflow=hidden;rotatable=0;points=[[0,0.5],[1,0.5]];portConstraint=eastwest;" parent="50" vertex="1">
                    <mxGeometry y="26" width="140" height="26" as="geometry"/>
                </mxCell>
                <mxCell id="52" value="+ entry*: String" style="text;strokeColor=none;fillColor=none;align=left;verticalAlign=top;spacingLeft=4;spacingRight=4;overflow=hidden;rotatable=0;points=[[0,0.5],[1,0.5]];portConstraint=eastwest;" parent="50" vertex="1">
                    <mxGeometry y="52" width="140" height="26" as="geometry"/>
                </mxCell>
                <mxCell id="56" value="1" style="endArrow=open;html=1;endSize=12;startArrow=diamondThin;startSize=14;startFill=0;edgeStyle=orthogonalEdgeStyle;align=left;verticalAlign=bottom;" parent="50" edge="1">
                    <mxGeometry x="-1" y="3" relative="1" as="geometry">
                        <mxPoint x="140" y="67" as="sourcePoint"/>
                        <mxPoint x="290" y="67" as="targetPoint"/>
                    </mxGeometry>
                </mxCell>
                <mxCell id="53" value="+ description*: String" style="text;strokeColor=none;fillColor=none;align=left;verticalAlign=top;spacingLeft=4;spacingRight=4;overflow=hidden;rotatable=0;points=[[0,0.5],[1,0.5]];portConstraint=eastwest;" parent="50" vertex="1">
                    <mxGeometry y="78" width="140" height="26" as="geometry"/>
                </mxCell>
                <mxCell id="54" value="1" style="endArrow=open;html=1;endSize=12;startArrow=diamondThin;startSize=14;startFill=1;edgeStyle=orthogonalEdgeStyle;align=left;verticalAlign=bottom;entryX=1.006;entryY=0.235;entryDx=0;entryDy=0;entryPerimeter=0;" parent="1" target="42" edge="1">
                    <mxGeometry x="-0.6399" y="-8" relative="1" as="geometry">
                        <mxPoint x="920" y="458" as="sourcePoint"/>
                        <mxPoint x="819.9999999999998" y="459.9759999999999" as="targetPoint"/>
                        <mxPoint as="offset"/>
                    </mxGeometry>
                </mxCell>
                <mxCell id="71" style="edgeStyle=none;html=1;entryX=0.696;entryY=-0.016;entryDx=0;entryDy=0;entryPerimeter=0;" parent="1" source="67" target="2" edge="1">
                    <mxGeometry relative="1" as="geometry">
                        <mxPoint x="270" y="-50.00000000000023" as="targetPoint"/>
                    </mxGeometry>
                </mxCell>
                <mxCell id="72" style="edgeStyle=none;html=1;entryX=0.5;entryY=0;entryDx=0;entryDy=0;" parent="1" source="67" target="10" edge="1">
                    <mxGeometry relative="1" as="geometry">
                        <mxPoint x="440" y="-30.000000000000227" as="targetPoint"/>
                    </mxGeometry>
                </mxCell>
                <mxCell id="73" style="edgeStyle=none;html=1;entryX=0.574;entryY=-0.009;entryDx=0;entryDy=0;entryPerimeter=0;" parent="1" source="67" target="26" edge="1">
                    <mxGeometry relative="1" as="geometry">
                        <mxPoint x="690" y="-10.000000000000227" as="targetPoint"/>
                    </mxGeometry>
                </mxCell>
                <mxCell id="67" value="Evaluator" style="shape=umlActor;verticalLabelPosition=bottom;verticalAlign=top;html=1;outlineConnect=0;" parent="1" vertex="1">
                    <mxGeometry x="414" y="-170" width="30" height="60" as="geometry"/>
                </mxCell>
                <mxCell id="75" value="" style="shape=stencil(lV3Zkhy3Efyafe3ADdSzLP+HIkSZDNOkgqJ8/L0B0+idqezJ6nqjVpmzPWigzizsW/7pj4+//P7hLYU/vn/7+vcP//r06/ePb/kvbyl9+vLxw7dP3+e/3vLPb/mn375++/C3b1///PLrj//+/ZeFXP/6x9d/rk/49w9ePEpepBT+s38g/X8/+OsP+OdPX57goTvg4ZDnT09HpvDx/On5iIHCq4KXyuC9PcHLETKFRwVv4oDXo0YHvB3Z8zD9SMUBH0doLvgYDrgcnb4mBY/hqJ7vGuOR+XtV+HQEz5ua+EGfp6k9P/cZ/fymjlQ5In1ZdWj8oOtZyzO+HoW+3f8/7YlvR0wUHzSe7/ys1nNuTnrKU9L4Qd9vVOszjkKfP6r1lyPQ9Qyi8ZU+f3he//Ub6fOHoPGDmgaNj0d1fX46En1fGj/NrOt58jbrN/Hl6K7nr/tE3MS3vWNv4rtxHhHPzaHGj6PR/anxciTX54tv/fO0GJ79kOORPO9r4sWzf3KyzpfC520xbuOF2kONL4b/0vhpbz37J7dtwW7jxfV9+9Fc33f4zksW33mZeO6/FL4Ew39pfDT8F+KH6/PT0VzPn4/sWZ8yA0/Pfpj44fq+0366vu+MPV3ft28PeBvvOl9lHNn1/NO/e+zPxLv8UQ1GvKfx03567HO1kiiNTzuCvYm38iKNn/Gq6/sWyx89x0u1Wv7oOR6rzfBHKt6beO6PVDxZu+GPVLxah+GPUtd4Hj+o+LnKjvBf4Z/z2DZ/Iz1fiOf2UOOjkcpqfDoiXU+VXzQr/yrPaX6z8i+V7zQz/yoab+Rfz/unWfmXygeblX/p0kA7Ot0/Q61n30Wde2WTNox8eYjGc/spaj3lKHT/yPN69rCrTK9qUFnjO1lPqFn1eGSynohP1N9d4Zm/Q3ym/g7xhfq7Mzp6wDN7O/HP57fX/ZMX+BQ1vtP1Sc/7pzfqH8+384DvFF/U+nRqn+OOjh7wzJ/G/TZP/Nge5xVeNJ7lg3FH+ydeaGFy7saq8SwfSdv6PeCZv047Gz2rgYHW39I+3Q/4TvZP0vZ2ROovZjQ+NJ7VB9Kurjzghez/dMjz+x3zG5HPzzqemXiheHVexjzv5HnyXu0HPIsf8q6mnvhC7VuGam/ZdfcX+KHWn+e/ZVeTTnyjZfyiz/vEN/L8ZWdnJ77T/OvMnk78oPlXhfc7aP5Vdbw3ZFukF3gVn0ig9qRCuT1Qe1W1v5ZI48Om/cvEs3rvGY2f+ETrh03b54mvZD3b9iYPeGav+vaGJ57n413bt4ln8UzX9koK9Y99R9cPeBavjm39HvBsvw193qXSeGnu3qLxmbwv2dXsBzyzh7Kj3wd8I+sv+jxOPI3fIEGaBFZAjxCxynkmrglxb8gHAm2Dgk+Vtr3yK0LvLsLpI+4SZlCYnITm+w5VJ9o2QZ8ck6BfnEFAW2QSWtQEGsy1XUt+INDosu8W9wOBphtdxyuTwPo9cRwJHokGsAM8SKMRRZTtME5CpynrJDTRBNbpxyLMJLAg+aLp3GkVA9MUGTyshjh/ElgdbAXWogkskZuEnjSBVZoxdJyEzpb19GQPBBrrly07OAm8mJqK1mhMAovuVrhTgcDC96bz+0lIbFnxTAsNAN77f/cJKgWxCOjTTUJLLoJsRcd9gnbTJkH7aU7IeKZNgvYPJkH7B4MQ9/++Txiw+SghHdm3SpCeWoS8uzP3Cd23SkVXaGxC973p6t0aGDqYBOfWwNDBJDQfoetCjU3wHdGMqYZBwNDBJDQgMPFNvrJLrHuQr+wSK1fmK7vUiFMsV3aJJXzlyi4NVmG4skushV+i3nwxnG21V4zmZECd8AZDvYobjOFkZL0DbzBAP2gwyhZHOhhqT5mMCio5iwFxzQ2G951DbeMGQ5zfY+xqgIMh3cc4jYyD4XyDFXWFNkMrL22GMgwmw20ZJqP5zsfSG/jOYL2KcpiBq1C0N0xohaq6YaQrFki4G6iYG3FHU6GQbbiySUBXxpxlBbNjuOPqjaOqN46q3jhqiTO8BF3fNQgd8myT4EvXqjddq1dhESVgUdUk6OocJzSQzdgE3YcwCb6t0cCW2QRfJt/AklkEb7rWsGZjEDJUSU1Chc3HrEbDSi+3S5NQXZavYaWX29ZJGJCjMuvdmm7CG/6hYVmVe6AGZ9pycs0dpjR30NFx2MNiQAnDZCTdELvBqL4wpefdQnUwqm91l8zFF6b0q43ONkmHXq+xDTs2b/lG71fVTHb2+lU1k5mDfuUeWb10yV1cJdw+oALFq8qToCtQg474dIEy9KAagCVhaZrAmsoDvd2gKoYBMjOjuj9AVzQJbA5qpL3qDwTWcJiEBo/EOu8jQ1zDeyCToOOavtV81wQ4o0ZbZmCM3Km6cWCMzOXkA2Nk3loaeKY7FUwP9HadTlwtAQx8adZPG+geueZ+oAii0SGYgbVG3hMcWGvkXcdx1aZkfc2BQTXvnA6sNfLe7ICygiEMmIQOWguqhQBxvBQqDhNQly+1CFNnoCHLVO4uMPcsmfoHAcGpJGqMBRSbkxDIexBstUbaLhYIaQwNlICIcb0ZsvkEQiBDxSUoGxxUpiqoA+Q6tElQhTZD6CZQ4TCUdGvndE2gLw4qq9MWMqc4CRXEhsx6C7SWBp/mE5Tr8XHBd/XTSUh0Hk6qjtkNAeoyKuo98AlMaSDZFirBW4ZRaXoH9aICDmVGgWzIYRl3UG0z0ZWAUGbGysJ+A3ThVzTOvkPXufuM95mSYBKqUm5nGpEJRMadj1Kv6EitUqSzdAJOcWaETAwsUG1f0xScoIzAzGvp5oO0t3VuNUAdNLN5FvMJuN1JYNHMSpHUd6h8WUF/1Aq33qLNzHsZ5hVB6V5aolO3K/NUYzyRyuIFUpoWqNjnIRvejCr71N5m8Nm0K0anAc01g87zXDD4xN8Vo9KZpytG2Yn2bUamNvaKkejq4is3RkFxU9VI11agQlUDN7IQ8RrTtQKF6sIzQDzchScSaD6MAedloJ6tQeEKbLRoJdOayyqYqMuBEvcsomu2hYvyZeipi2IEsGD38+CZB0jOlpyEBbAgPM9GeDn0JEs2okWo2RpXOaD/Ne6WEMhijcsuVkigVinQYtkKOp4fKc33wH+DysSN+0YwDkpGaNb3vN1J8IZmayiGE5TWJBmhWdNDb4kPQa7qhPoOid4iJdBmXAJfHsAqtcX75OvLmDppAhtsnAR92Rq/aQjD/Dh4rg+itnex+EsCXN7EJMmYqiyFPIvlUPbS6HU3a/QC7rdqbFmhZb0u0DLys6AJbEJ8DbS4rgATaLsbd4xJ1UP0k0DtUoVbtCI3xpAnTwI1ZJCJx0AjJoHS7iSwKueao1LtGl4bgElE4dkZtJwG9yagTRt842EJiA9WweQrD6VXEUtNum8T9aqspieJeWED2u08UBfo5ze+qfGmAV43wZse6KWIApKHRi8ywGpupd3BiVd1zUozuAGZNL/oZOIr4HlFPWo8S3oGTBZVOsi9egIaz5zHgJKPiS/6+Ske6mgmXtlEAw/FSQMP9VUDn3bgdxuvOrkGHqQBBh5aBxzfoapi4CFnMfH65h6rcZ09+6dDRGfgIfIw8frmHo6HyXUDD+V5E59d3xe0TSY+6udnQX6Hy4Ur1xlAp6rSbkTHm72oyqCBPedX+jZIqQsfXAf7XGhOs+qsqtZC+/8N0rLCB+9BSsJvPG4QqmeauTZonBv4oqtXJj65Ph/iPQMPo1gmPrjwMIJq4OFmLI5fGlEXHm4CMPFR70+2fyr0W/j+rJDT8/1fQUZRaCaJ4md+Htc9dvrzmUSows0l3D5UGMzjJegKHWMDD/ogEx/1+6J4uGnJwMPNZCY+eNYHp0QMPMzBG/iu4zf+fgso8fj+KQ33D9ufBW6C4fu/gIyXn68C8Qk/vwXEX9w+FKd9LiClNvCw/zO92KhAfs0bPAVu9sq0XlEgPs9UiIZjhJleBFku/AXTrWXoHmWquslwvjKtt2TIf028bihYeNgPFA9zICYe9gPFQ4nZxEfXesLVCQa+6PqGgYf8wsRDPEPxSccDBv7ifBl433qC+N7EB8/zJGiFmvjkwl/Ebwa+uPDYTbPw1fn5ED9TPPRLzg14jYd6UaZ3++DNbYnWhxPcmMQvYk4wqJOoKGWZb/35ifiLhNPXVD2QYPgpUsVigsswIhW/JhxVof0wvImWixnw5uBAL3aMIK8ItO0ZRdcDA7/YFFQAgda3I9QTApX6TrwacQ20Hj7xqsUTuIwG/GPgF79C45lrSfDuLD6+g5dzmfik15PioVFo4qteTwMf9XpSPIw2mPjiWk8YYDbwUN828bA/DTzsT4qHIXITj/uT4WF61MT79ifcfGycF7g52ziPEM8Y5x1mDbg9Ae0YN1eQLfA/mwCKKG48Qa0UqPwSUgUOh0ost/xQiA30xk7oQ3A/BJoM7uaqrppzLwpNi0j/ehXc98Z9OmoA9pl8AY/6YRgcDFSkDW6wT5HqBsE8RSqrAuuU6B/ZS7p5lehwE9zew2PNi9SJ31GupEu80gCNf16IgQEiXqeCsoehzLX+ZOX8x/ufu/zt0+fPP/5a5uP/138ec/7ox5/WzD//Fw==);fillColor=none;" parent="1" vertex="1">
                    <mxGeometry x="310" y="6" width="560" height="304" as="geometry"/>
                </mxCell>
                <mxCell id="77" style="edgeStyle=none;html=1;entryX=0.46;entryY=1.075;entryDx=0;entryDy=0;entryPerimeter=0;" parent="1" source="76" target="46" edge="1">
                    <mxGeometry relative="1" as="geometry">
                        <mxPoint x="900" y="590" as="targetPoint"/>
                    </mxGeometry>
                </mxCell>
                <mxCell id="78" style="edgeStyle=none;html=1;entryX=0.477;entryY=1.156;entryDx=0;entryDy=0;entryPerimeter=0;" parent="1" source="76" target="38" edge="1">
                    <mxGeometry relative="1" as="geometry">
                        <mxPoint x="720" y="580" as="targetPoint"/>
                    </mxGeometry>
                </mxCell>
                <mxCell id="79" style="edgeStyle=none;html=1;" parent="1" source="76" edge="1">
                    <mxGeometry relative="1" as="geometry">
                        <mxPoint x="420" y="500" as="targetPoint"/>
                    </mxGeometry>
                </mxCell>
                <mxCell id="84" style="edgeStyle=none;html=1;" parent="1" source="76" target="9" edge="1">
                    <mxGeometry relative="1" as="geometry">
                        <mxPoint x="170" y="360" as="targetPoint"/>
                    </mxGeometry>
                </mxCell>
                <mxCell id="76" value="Admin" style="shape=umlActor;verticalLabelPosition=bottom;verticalAlign=top;html=1;outlineConnect=0;" parent="1" vertex="1">
                    <mxGeometry x="250" y="760" width="30" height="60" as="geometry"/>
                </mxCell>
                <mxCell id="80" value="" style="shape=stencil(lVzJkhU3EPyauSq0S3XG9n8QAZgJYyAAb3/vksfqeS9LL9V9g5nMHrWWWrJK/ZTefP/49uv7p+i///j25bf3fz2/+/HxKf30FOPz54/vvz3/0H89pZ+f0psPX769//Xblz8+v3v5/9e3Azn+9fuXP8cT/n7hSXBZBiv6f15+kl0N//3glxf8p+fPt3jvWr+A7+LG787jq6sJ8CkSfHaC+MCeH533d/g0X2iJb90J4nMh+OI64n0m+IjzGecELPFVnBTARzI/tbl4v77BdSH44mIBfCXjr8mVCvjsCV6HmwAf2ft6nH/9ARl/kfnnX/GdzE9pczpe8bUSfHWpAz6z8ej+rIBP5H2LzmcBfGDjiXi+vPNkP5fgPI7Hk/Uq+mucH4bPgvttg++u4HxSvK5Xu4YPV9436/peen5x5RI+u3YJn1y/ND8J7dsGH9B+bvDG/nN8ErTnG3xHe7LBN1euvG/S9cXzRfFqDy+9r7qfS++r63VlP6R47Tym4IKxDwyvv74yP7FPc3wa78MVfJvu8yS+unBp/OXaftDw4tL+HOGFwRP7PMKFK/Zf3X/C+YkkPhnuHPcn80fDfSI+k/hqvB6Op5D3DTL//Dl/HdQ+YPzw/wFa45trV+KNUNEe8nhG8eB/ebwU1F8EwLN4LGSMT6IL7PnZxQb4xMZv4rfoMpvP6CQDnsWris8B8J3th4D+Lk2D+ggP5zdNB77GH9vrFV/ZfvMYD6QZgD/C+/vna/5Czq/MaPMV3sjwTXSr7ok+HQ5jcZU8vaNvV2NK4bCVKw2du4v3g2nTVK8zI9z4zVUKL/dP7/Sc6N/uAKdpF1pBobuy4qES11hSZHI0P6OOdVCOZ3DsapYkzFU/8GEu3QM8nFk9xcypFPRZw0oQo6Z7HN43TSv9AF/AxmZqpPI8FAdejwl534QxjOLZIdfRwnh055P3TS7DeJrL5H0Txpzq9Tx9fhDENzr+cG9F1AtTp44+cQQlLMiYf/0Gz5xcxBzqNUp5gM+gmURq9PW34EMTFYkOl3mD7/R9IeYfO5Y8PxgNp9AgL8zTfYNvLAjAHFMtDBPRdLY74mlQgoZfzSkNGjDGG76Azg/E8CPLYE4XNY1hb8l4PLoWzXrYemnOe/++mlUxe+gxRlU8s4fexDCR2kOPMZ5mkWz+PTq71yz1AR5yTMV3+nzUVAsVeS2+Unto8W0z/4jvNOla4YX4a4uX6RHO4bOfHuEk/sjiT+OZqG3x8dr8D5WJ7meLZ/7I4jP1RxZfaBK4wvdLz69TlT2JP1T3k3jdn5fmv2/sG+JlY98AX7goYOxDCTQeMPan8KTX2LfCk0xjPwsv0ujpg7Qo03jb2PNSZgT1AF8j4oWeX/AvhWdSFt+oSGHxPDla4VnSbvEys7Fz+KorfmX8lec7Fs/zHYuPNPFd4Tvdn4hPtGhk8fnaeim+X5rPsvFHiK8bf2Tx3B8hnudHHmusledHJt6rPD/yTkAH4fmRiT+b56KkUUI8jR+Cy/f2pIVZhXwUz9/PT4u0CG3yhVGVZqIh5i8tUZHL5EctzyrAufxL8Uy3MvlgK1zURtFN8Sw+19MN61WpyJuwxtEaFWFNvq94Zm+NntA69XcJNf8mNN5IWHNXfCH7M09reYhphwr6AA81i87zr6Nl5MAHXqREDVnxhRW5p3U98JGeX6OPKZ5pk2WqBwdezwt53zqz4wOfp8L2AF8L4hvZzw3jt15mhPMAn+H5dUZoj6Tb+/3TGz3vHWv0iudKMugPvfMmoanO3eBZftfRvnWh+bXpcVK8cBX/fjzC80FB+6N4lo+HI5w6CIEGuEqoGQlM0bRlF4lThFwTTN+PEiovTIETEJ50howVACUwrxEKtpJI5jJcM9OauQ7XMRGQwquPprtLeKY6pDIYUqX9YMMXVyRQrTViA5MShDn7hB09wrPhIdd7JLCa3LDvEQlC1mEYbNganRowtagQ0SmBecDYzG7tXDLuWEMQmVny2if7aeJuCJkMKZlORyUUVkVIaCaVQMsIBWujcliqNaGZaRWaGKc+z9ckBL/tNwLfs2Nkj6+9ZZie2S0j4hY/wZBwjZHQ2GwZGXX5LaNgQfkE4+IK5orRxpZhevxOMMD0bxkd+3g2WzcLNp5sDkcxWfDm+BVTtlECc3jF5D0bi1BM4iBcSCymUquExF7ahNIbM1gq9rMNAovtK25AJbBgtLSZy96YcmEtuw3lAuHybOmYn0unsVAxAaYSMptWwYqtEliGXm0AyD1ktQFgpwFgjQuXyoqwSgBVQrhKPkQ1E3iwsGCoaobAdMVqmrGUwIStWsxKN94JUmdieDIWqg37jZTAcrlqGuKkUfGgdhM8NVptr4Ll2z0B6tsbQvPYMLAjBFRYdoSIbbl7AobJG0JCUWBHyIuFo4Riso8NoWJevSM0bKzYEfrVdRCUljbJhBLsOrDaQvfGsTcqbveAaos0qq72aBLTSuW9nlDvVUJj+kk2VqNSQaGbrvZN2tirWYdKJaluQ32eyfaGTW1KKOwdTG6gBKaqdTHrwMvG4lGnlEybkyWg0K2Ewv5CMMpOnrWBNSHi9SBJM1FYE5JZuERjPv01NOe9PmJNyCaEizMwfURAkYNrR7pM6NgDv6RYUYAX3kAhJufQtWeqyDjBAQnsPEjDe3U7TfEIFE6KliM6KkhgquiIIY1MyxKOEaU2JNCt0Y3wXWn+MELze8unlopFZEqAxHqYNjZL5n6aGk+qvVpCosW6BSHOBOE8gbVTLAiB1rsWBF5wsQT1q0wPXhA6laiXBOZFF4RGXdaCwLsgF4RCy74LAu/7XBASTfwWBF6ZXRACLQUtCLxX1xLGleRL21sJrBtvQej8loMltJmdniVUWh9ZEArtoFwQEg8dLCHSi1MLQrj60p47RUPYtAEtCI32sS4IvPFpQeA3WhaETHX5BYFf+FkSNoYMbpAXfoVfjkDhIPA7aUOku4+9C7+EN3TDez+duVYpRtzMXIUb2ue9Y89ckBrq6n2AlblyciPg3jBo18uCUXlfzYJReOfOkkF7gxYM3g27YvB+2zWDFlcXDN4zvGLwruQ1Y2OhcJN4uoB2G4776Zc2+qY13J69Te+5NQeb5nYb8m66521QvWnPF1PrSLyfRMxHHBJvWLGpR+IdMdKxRSdFbgMb6kApcBto8q10KEOPCBlutQitE4gpU41bhDyNhT6scW+GrYP5eM7mYo6Yr11E3tmmBLhqFnnrnE3FI+/Nk6NV+iDw5r+hK5nbV6zAI6YkGXn74oKwicILFtoib8AU8xWRyDs8rSQSeQvp0MYECVT8KtjRsLkkKAW71ja3EJUApbzNNUex1WfeJ7wg8IuaCwK/CboksKttVvza3GUdkiMUt/llWTFfmNncxh0apSCBFW2t4hfCTvGDipASWJVXzFdvgucLl8xnIfiVAiXAHWF+RVvMd3WEr3PEgmqnLfmKhzCgc4cYp+s48nYqr1uluXGhOWDP7ebkBCxBVB7FGKm8cFl6+506/cfrR+4+PH/69PKNvNvf40fx9EcvH9RLP/8L);fillColor=none;" parent="1" vertex="1">
                    <mxGeometry x="320" y="370" width="210" height="160" as="geometry"/>
                </mxCell>
                <mxCell id="81" value="" style="shape=stencil(lVzJkhU3EPyauSq0S3XG9n8QAZgJYyAAb3/vksfqeS9LL9V9g5nMHrWWWrJK/ZTefP/49uv7p+i///j25bf3fz2/+/HxKf30FOPz54/vvz3/0H89pZ+f0psPX769//Xblz8+v3v5/9e3Azn+9fuXP8cT/n7hSXBZBiv6f15+kl0N//3glxf8p+fPt3jvWr+A7+LG787jq6sJ8CkSfHaC+MCeH533d/g0X2iJb90J4nMh+OI64n0m+IjzGecELPFVnBTARzI/tbl4v77BdSH44mIBfCXjr8mVCvjsCV6HmwAf2ft6nH/9ARl/kfnnX/GdzE9pczpe8bUSfHWpAz6z8ej+rIBP5H2LzmcBfGDjiXi+vPNkP5fgPI7Hk/Uq+mucH4bPgvttg++u4HxSvK5Xu4YPV9436/peen5x5RI+u3YJn1y/ND8J7dsGH9B+bvDG/nN8ErTnG3xHe7LBN1euvG/S9cXzRfFqDy+9r7qfS++r63VlP6R47Tym4IKxDwyvv74yP7FPc3wa78MVfJvu8yS+unBp/OXaftDw4tL+HOGFwRP7PMKFK/Zf3X/C+YkkPhnuHPcn80fDfSI+k/hqvB6Op5D3DTL//Dl/HdQ+YPzw/wFa45trV+KNUNEe8nhG8eB/ebwU1F8EwLN4LGSMT6IL7PnZxQb4xMZv4rfoMpvP6CQDnsWris8B8J3th4D+Lk2D+ggP5zdNB77GH9vrFV/ZfvMYD6QZgD/C+/vna/5Czq/MaPMV3sjwTXSr7ok+HQ5jcZU8vaNvV2NK4bCVKw2du4v3g2nTVK8zI9z4zVUKL/dP7/Sc6N/uAKdpF1pBobuy4qES11hSZHI0P6OOdVCOZ3DsapYkzFU/8GEu3QM8nFk9xcypFPRZw0oQo6Z7HN43TSv9AF/AxmZqpPI8FAdejwl534QxjOLZIdfRwnh055P3TS7DeJrL5H0Txpzq9Tx9fhDENzr+cG9F1AtTp44+cQQlLMiYf/0Gz5xcxBzqNUp5gM+gmURq9PW34EMTFYkOl3mD7/R9IeYfO5Y8PxgNp9AgL8zTfYNvLAjAHFMtDBPRdLY74mlQgoZfzSkNGjDGG76Azg/E8CPLYE4XNY1hb8l4PLoWzXrYemnOe/++mlUxe+gxRlU8s4fexDCR2kOPMZ5mkWz+PTq71yz1AR5yTMV3+nzUVAsVeS2+Unto8W0z/4jvNOla4YX4a4uX6RHO4bOfHuEk/sjiT+OZqG3x8dr8D5WJ7meLZ/7I4jP1RxZfaBK4wvdLz69TlT2JP1T3k3jdn5fmv2/sG+JlY98AX7goYOxDCTQeMPan8KTX2LfCk0xjPwsv0ujpg7Qo03jb2PNSZgT1AF8j4oWeX/AvhWdSFt+oSGHxPDla4VnSbvEys7Fz+KorfmX8lec7Fs/zHYuPNPFd4Tvdn4hPtGhk8fnaeim+X5rPsvFHiK8bf2Tx3B8hnudHHmusledHJt6rPD/yTkAH4fmRiT+b56KkUUI8jR+Cy/f2pIVZhXwUz9/PT4u0CG3yhVGVZqIh5i8tUZHL5EctzyrAufxL8Uy3MvlgK1zURtFN8Sw+19MN61WpyJuwxtEaFWFNvq94Zm+NntA69XcJNf8mNN5IWHNXfCH7M09reYhphwr6AA81i87zr6Nl5MAHXqREDVnxhRW5p3U98JGeX6OPKZ5pk2WqBwdezwt53zqz4wOfp8L2AF8L4hvZzw3jt15mhPMAn+H5dUZoj6Tb+/3TGz3vHWv0iudKMugPvfMmoanO3eBZftfRvnWh+bXpcVK8cBX/fjzC80FB+6N4lo+HI5w6CIEGuEqoGQlM0bRlF4lThFwTTN+PEiovTIETEJ50howVACUwrxEKtpJI5jJcM9OauQ7XMRGQwquPprtLeKY6pDIYUqX9YMMXVyRQrTViA5MShDn7hB09wrPhIdd7JLCa3LDvEQlC1mEYbNganRowtagQ0SmBecDYzG7tXDLuWEMQmVny2if7aeJuCJkMKZlORyUUVkVIaCaVQMsIBWujcliqNaGZaRWaGKc+z9ckBL/tNwLfs2Nkj6+9ZZie2S0j4hY/wZBwjZHQ2GwZGXX5LaNgQfkE4+IK5orRxpZhevxOMMD0bxkd+3g2WzcLNp5sDkcxWfDm+BVTtlECc3jF5D0bi1BM4iBcSCymUquExF7ahNIbM1gq9rMNAovtK25AJbBgtLSZy96YcmEtuw3lAuHybOmYn0unsVAxAaYSMptWwYqtEliGXm0AyD1ktQFgpwFgjQuXyoqwSgBVQrhKPkQ1E3iwsGCoaobAdMVqmrGUwIStWsxKN94JUmdieDIWqg37jZTAcrlqGuKkUfGgdhM8NVptr4Ll2z0B6tsbQvPYMLAjBFRYdoSIbbl7AobJG0JCUWBHyIuFo4Riso8NoWJevSM0bKzYEfrVdRCUljbJhBLsOrDaQvfGsTcqbveAaos0qq72aBLTSuW9nlDvVUJj+kk2VqNSQaGbrvZN2tirWYdKJaluQ32eyfaGTW1KKOwdTG6gBKaqdTHrwMvG4lGnlEybkyWg0K2Ewv5CMMpOnrWBNSHi9SBJM1FYE5JZuERjPv01NOe9PmJNyCaEizMwfURAkYNrR7pM6NgDv6RYUYAX3kAhJufQtWeqyDjBAQnsPEjDe3U7TfEIFE6KliM6KkhgquiIIY1MyxKOEaU2JNCt0Y3wXWn+MELze8unlopFZEqAxHqYNjZL5n6aGk+qvVpCosW6BSHOBOE8gbVTLAiB1rsWBF5wsQT1q0wPXhA6laiXBOZFF4RGXdaCwLsgF4RCy74LAu/7XBASTfwWBF6ZXRACLQUtCLxX1xLGleRL21sJrBtvQej8loMltJmdniVUWh9ZEArtoFwQEg8dLCHSi1MLQrj60p47RUPYtAEtCI32sS4IvPFpQeA3WhaETHX5BYFf+FkSNoYMbpAXfoVfjkDhIPA7aUOku4+9C7+EN3TDez+duVYpRtzMXIUb2ue9Y89ckBrq6n2AlblyciPg3jBo18uCUXlfzYJReOfOkkF7gxYM3g27YvB+2zWDFlcXDN4zvGLwruQ1Y2OhcJN4uoB2G4776Zc2+qY13J69Te+5NQeb5nYb8m66521QvWnPF1PrSLyfRMxHHBJvWLGpR+IdMdKxRSdFbgMb6kApcBto8q10KEOPCBlutQitE4gpU41bhDyNhT6scW+GrYP5eM7mYo6Yr11E3tmmBLhqFnnrnE3FI+/Nk6NV+iDw5r+hK5nbV6zAI6YkGXn74oKwicILFtoib8AU8xWRyDs8rSQSeQvp0MYECVT8KtjRsLkkKAW71ja3EJUApbzNNUex1WfeJ7wg8IuaCwK/CboksKttVvza3GUdkiMUt/llWTFfmNncxh0apSCBFW2t4hfCTvGDipASWJVXzFdvgucLl8xnIfiVAiXAHWF+RVvMd3WEr3PEgmqnLfmKhzCgc4cYp+s48nYqr1uluXGhOWDP7ebkBCxBVB7FGKm8cFl6+506/cfrR+4+PH/69PKNvNvf40fx9EcvH9RLP/8L);fillColor=none;" parent="1" vertex="1">
                    <mxGeometry x="610" y="368" width="230" height="190" as="geometry"/>
                </mxCell>
                <mxCell id="82" value="" style="shape=stencil(lVzJkhU3EPyauSq0S3XG9n8QAZgJYyAAb3/vksfqeS9LL9V9g5nMHrWWWrJK/ZTefP/49uv7p+i///j25bf3fz2/+/HxKf30FOPz54/vvz3/0H89pZ+f0psPX769//Xblz8+v3v5/9e3Azn+9fuXP8cT/n7hSXBZBiv6f15+kl0N//3glxf8p+fPt3jvWr+A7+LG787jq6sJ8CkSfHaC+MCeH533d/g0X2iJb90J4nMh+OI64n0m+IjzGecELPFVnBTARzI/tbl4v77BdSH44mIBfCXjr8mVCvjsCV6HmwAf2ft6nH/9ARl/kfnnX/GdzE9pczpe8bUSfHWpAz6z8ej+rIBP5H2LzmcBfGDjiXi+vPNkP5fgPI7Hk/Uq+mucH4bPgvttg++u4HxSvK5Xu4YPV9436/peen5x5RI+u3YJn1y/ND8J7dsGH9B+bvDG/nN8ErTnG3xHe7LBN1euvG/S9cXzRfFqDy+9r7qfS++r63VlP6R47Tym4IKxDwyvv74yP7FPc3wa78MVfJvu8yS+unBp/OXaftDw4tL+HOGFwRP7PMKFK/Zf3X/C+YkkPhnuHPcn80fDfSI+k/hqvB6Op5D3DTL//Dl/HdQ+YPzw/wFa45trV+KNUNEe8nhG8eB/ebwU1F8EwLN4LGSMT6IL7PnZxQb4xMZv4rfoMpvP6CQDnsWris8B8J3th4D+Lk2D+ggP5zdNB77GH9vrFV/ZfvMYD6QZgD/C+/vna/5Czq/MaPMV3sjwTXSr7ok+HQ5jcZU8vaNvV2NK4bCVKw2du4v3g2nTVK8zI9z4zVUKL/dP7/Sc6N/uAKdpF1pBobuy4qES11hSZHI0P6OOdVCOZ3DsapYkzFU/8GEu3QM8nFk9xcypFPRZw0oQo6Z7HN43TSv9AF/AxmZqpPI8FAdejwl534QxjOLZIdfRwnh055P3TS7DeJrL5H0Txpzq9Tx9fhDENzr+cG9F1AtTp44+cQQlLMiYf/0Gz5xcxBzqNUp5gM+gmURq9PW34EMTFYkOl3mD7/R9IeYfO5Y8PxgNp9AgL8zTfYNvLAjAHFMtDBPRdLY74mlQgoZfzSkNGjDGG76Azg/E8CPLYE4XNY1hb8l4PLoWzXrYemnOe/++mlUxe+gxRlU8s4fexDCR2kOPMZ5mkWz+PTq71yz1AR5yTMV3+nzUVAsVeS2+Unto8W0z/4jvNOla4YX4a4uX6RHO4bOfHuEk/sjiT+OZqG3x8dr8D5WJ7meLZ/7I4jP1RxZfaBK4wvdLz69TlT2JP1T3k3jdn5fmv2/sG+JlY98AX7goYOxDCTQeMPan8KTX2LfCk0xjPwsv0ujpg7Qo03jb2PNSZgT1AF8j4oWeX/AvhWdSFt+oSGHxPDla4VnSbvEys7Fz+KorfmX8lec7Fs/zHYuPNPFd4Tvdn4hPtGhk8fnaeim+X5rPsvFHiK8bf2Tx3B8hnudHHmusledHJt6rPD/yTkAH4fmRiT+b56KkUUI8jR+Cy/f2pIVZhXwUz9/PT4u0CG3yhVGVZqIh5i8tUZHL5EctzyrAufxL8Uy3MvlgK1zURtFN8Sw+19MN61WpyJuwxtEaFWFNvq94Zm+NntA69XcJNf8mNN5IWHNXfCH7M09reYhphwr6AA81i87zr6Nl5MAHXqREDVnxhRW5p3U98JGeX6OPKZ5pk2WqBwdezwt53zqz4wOfp8L2AF8L4hvZzw3jt15mhPMAn+H5dUZoj6Tb+/3TGz3vHWv0iudKMugPvfMmoanO3eBZftfRvnWh+bXpcVK8cBX/fjzC80FB+6N4lo+HI5w6CIEGuEqoGQlM0bRlF4lThFwTTN+PEiovTIETEJ50howVACUwrxEKtpJI5jJcM9OauQ7XMRGQwquPprtLeKY6pDIYUqX9YMMXVyRQrTViA5MShDn7hB09wrPhIdd7JLCa3LDvEQlC1mEYbNganRowtagQ0SmBecDYzG7tXDLuWEMQmVny2if7aeJuCJkMKZlORyUUVkVIaCaVQMsIBWujcliqNaGZaRWaGKc+z9ckBL/tNwLfs2Nkj6+9ZZie2S0j4hY/wZBwjZHQ2GwZGXX5LaNgQfkE4+IK5orRxpZhevxOMMD0bxkd+3g2WzcLNp5sDkcxWfDm+BVTtlECc3jF5D0bi1BM4iBcSCymUquExF7ahNIbM1gq9rMNAovtK25AJbBgtLSZy96YcmEtuw3lAuHybOmYn0unsVAxAaYSMptWwYqtEliGXm0AyD1ktQFgpwFgjQuXyoqwSgBVQrhKPkQ1E3iwsGCoaobAdMVqmrGUwIStWsxKN94JUmdieDIWqg37jZTAcrlqGuKkUfGgdhM8NVptr4Ll2z0B6tsbQvPYMLAjBFRYdoSIbbl7AobJG0JCUWBHyIuFo4Riso8NoWJevSM0bKzYEfrVdRCUljbJhBLsOrDaQvfGsTcqbveAaos0qq72aBLTSuW9nlDvVUJj+kk2VqNSQaGbrvZN2tirWYdKJaluQ32eyfaGTW1KKOwdTG6gBKaqdTHrwMvG4lGnlEybkyWg0K2Ewv5CMMpOnrWBNSHi9SBJM1FYE5JZuERjPv01NOe9PmJNyCaEizMwfURAkYNrR7pM6NgDv6RYUYAX3kAhJufQtWeqyDjBAQnsPEjDe3U7TfEIFE6KliM6KkhgquiIIY1MyxKOEaU2JNCt0Y3wXWn+MELze8unlopFZEqAxHqYNjZL5n6aGk+qvVpCosW6BSHOBOE8gbVTLAiB1rsWBF5wsQT1q0wPXhA6laiXBOZFF4RGXdaCwLsgF4RCy74LAu/7XBASTfwWBF6ZXRACLQUtCLxX1xLGleRL21sJrBtvQej8loMltJmdniVUWh9ZEArtoFwQEg8dLCHSi1MLQrj60p47RUPYtAEtCI32sS4IvPFpQeA3WhaETHX5BYFf+FkSNoYMbpAXfoVfjkDhIPA7aUOku4+9C7+EN3TDez+duVYpRtzMXIUb2ue9Y89ckBrq6n2AlblyciPg3jBo18uCUXlfzYJReOfOkkF7gxYM3g27YvB+2zWDFlcXDN4zvGLwruQ1Y2OhcJN4uoB2G4776Zc2+qY13J69Te+5NQeb5nYb8m66521QvWnPF1PrSLyfRMxHHBJvWLGpR+IdMdKxRSdFbgMb6kApcBto8q10KEOPCBlutQitE4gpU41bhDyNhT6scW+GrYP5eM7mYo6Yr11E3tmmBLhqFnnrnE3FI+/Nk6NV+iDw5r+hK5nbV6zAI6YkGXn74oKwicILFtoib8AU8xWRyDs8rSQSeQvp0MYECVT8KtjRsLkkKAW71ja3EJUApbzNNUex1WfeJ7wg8IuaCwK/CboksKttVvza3GUdkiMUt/llWTFfmNncxh0apSCBFW2t4hfCTvGDipASWJVXzFdvgucLl8xnIfiVAiXAHWF+RVvMd3WEr3PEgmqnLfmKhzCgc4cYp+s48nYqr1uluXGhOWDP7ebkBCxBVB7FGKm8cFl6+506/cfrR+4+PH/69PKNvNvf40fx9EcvH9RLP/8L);fillColor=none;" parent="1" vertex="1">
                    <mxGeometry x="890" y="370" width="200" height="200" as="geometry"/>
                </mxCell>
                <mxCell id="85" value="" style="shape=stencil(lVzJkhU3EPyauSq0S3XG9n8QAZgJYyAAb3/vksfqeS9LL9V9g5nMHrWWWrJK/ZTefP/49uv7p+i///j25bf3fz2/+/HxKf30FOPz54/vvz3/0H89pZ+f0psPX769//Xblz8+v3v5/9e3Azn+9fuXP8cT/n7hSXBZBiv6f15+kl0N//3glxf8p+fPt3jvWr+A7+LG787jq6sJ8CkSfHaC+MCeH533d/g0X2iJb90J4nMh+OI64n0m+IjzGecELPFVnBTARzI/tbl4v77BdSH44mIBfCXjr8mVCvjsCV6HmwAf2ft6nH/9ARl/kfnnX/GdzE9pczpe8bUSfHWpAz6z8ej+rIBP5H2LzmcBfGDjiXi+vPNkP5fgPI7Hk/Uq+mucH4bPgvttg++u4HxSvK5Xu4YPV9436/peen5x5RI+u3YJn1y/ND8J7dsGH9B+bvDG/nN8ErTnG3xHe7LBN1euvG/S9cXzRfFqDy+9r7qfS++r63VlP6R47Tym4IKxDwyvv74yP7FPc3wa78MVfJvu8yS+unBp/OXaftDw4tL+HOGFwRP7PMKFK/Zf3X/C+YkkPhnuHPcn80fDfSI+k/hqvB6Op5D3DTL//Dl/HdQ+YPzw/wFa45trV+KNUNEe8nhG8eB/ebwU1F8EwLN4LGSMT6IL7PnZxQb4xMZv4rfoMpvP6CQDnsWris8B8J3th4D+Lk2D+ggP5zdNB77GH9vrFV/ZfvMYD6QZgD/C+/vna/5Czq/MaPMV3sjwTXSr7ok+HQ5jcZU8vaNvV2NK4bCVKw2du4v3g2nTVK8zI9z4zVUKL/dP7/Sc6N/uAKdpF1pBobuy4qES11hSZHI0P6OOdVCOZ3DsapYkzFU/8GEu3QM8nFk9xcypFPRZw0oQo6Z7HN43TSv9AF/AxmZqpPI8FAdejwl534QxjOLZIdfRwnh055P3TS7DeJrL5H0Txpzq9Tx9fhDENzr+cG9F1AtTp44+cQQlLMiYf/0Gz5xcxBzqNUp5gM+gmURq9PW34EMTFYkOl3mD7/R9IeYfO5Y8PxgNp9AgL8zTfYNvLAjAHFMtDBPRdLY74mlQgoZfzSkNGjDGG76Azg/E8CPLYE4XNY1hb8l4PLoWzXrYemnOe/++mlUxe+gxRlU8s4fexDCR2kOPMZ5mkWz+PTq71yz1AR5yTMV3+nzUVAsVeS2+Unto8W0z/4jvNOla4YX4a4uX6RHO4bOfHuEk/sjiT+OZqG3x8dr8D5WJ7meLZ/7I4jP1RxZfaBK4wvdLz69TlT2JP1T3k3jdn5fmv2/sG+JlY98AX7goYOxDCTQeMPan8KTX2LfCk0xjPwsv0ujpg7Qo03jb2PNSZgT1AF8j4oWeX/AvhWdSFt+oSGHxPDla4VnSbvEys7Fz+KorfmX8lec7Fs/zHYuPNPFd4Tvdn4hPtGhk8fnaeim+X5rPsvFHiK8bf2Tx3B8hnudHHmusledHJt6rPD/yTkAH4fmRiT+b56KkUUI8jR+Cy/f2pIVZhXwUz9/PT4u0CG3yhVGVZqIh5i8tUZHL5EctzyrAufxL8Uy3MvlgK1zURtFN8Sw+19MN61WpyJuwxtEaFWFNvq94Zm+NntA69XcJNf8mNN5IWHNXfCH7M09reYhphwr6AA81i87zr6Nl5MAHXqREDVnxhRW5p3U98JGeX6OPKZ5pk2WqBwdezwt53zqz4wOfp8L2AF8L4hvZzw3jt15mhPMAn+H5dUZoj6Tb+/3TGz3vHWv0iudKMugPvfMmoanO3eBZftfRvnWh+bXpcVK8cBX/fjzC80FB+6N4lo+HI5w6CIEGuEqoGQlM0bRlF4lThFwTTN+PEiovTIETEJ50howVACUwrxEKtpJI5jJcM9OauQ7XMRGQwquPprtLeKY6pDIYUqX9YMMXVyRQrTViA5MShDn7hB09wrPhIdd7JLCa3LDvEQlC1mEYbNganRowtagQ0SmBecDYzG7tXDLuWEMQmVny2if7aeJuCJkMKZlORyUUVkVIaCaVQMsIBWujcliqNaGZaRWaGKc+z9ckBL/tNwLfs2Nkj6+9ZZie2S0j4hY/wZBwjZHQ2GwZGXX5LaNgQfkE4+IK5orRxpZhevxOMMD0bxkd+3g2WzcLNp5sDkcxWfDm+BVTtlECc3jF5D0bi1BM4iBcSCymUquExF7ahNIbM1gq9rMNAovtK25AJbBgtLSZy96YcmEtuw3lAuHybOmYn0unsVAxAaYSMptWwYqtEliGXm0AyD1ktQFgpwFgjQuXyoqwSgBVQrhKPkQ1E3iwsGCoaobAdMVqmrGUwIStWsxKN94JUmdieDIWqg37jZTAcrlqGuKkUfGgdhM8NVptr4Ll2z0B6tsbQvPYMLAjBFRYdoSIbbl7AobJG0JCUWBHyIuFo4Riso8NoWJevSM0bKzYEfrVdRCUljbJhBLsOrDaQvfGsTcqbveAaos0qq72aBLTSuW9nlDvVUJj+kk2VqNSQaGbrvZN2tirWYdKJaluQ32eyfaGTW1KKOwdTG6gBKaqdTHrwMvG4lGnlEybkyWg0K2Ewv5CMMpOnrWBNSHi9SBJM1FYE5JZuERjPv01NOe9PmJNyCaEizMwfURAkYNrR7pM6NgDv6RYUYAX3kAhJufQtWeqyDjBAQnsPEjDe3U7TfEIFE6KliM6KkhgquiIIY1MyxKOEaU2JNCt0Y3wXWn+MELze8unlopFZEqAxHqYNjZL5n6aGk+qvVpCosW6BSHOBOE8gbVTLAiB1rsWBF5wsQT1q0wPXhA6laiXBOZFF4RGXdaCwLsgF4RCy74LAu/7XBASTfwWBF6ZXRACLQUtCLxX1xLGleRL21sJrBtvQej8loMltJmdniVUWh9ZEArtoFwQEg8dLCHSi1MLQrj60p47RUPYtAEtCI32sS4IvPFpQeA3WhaETHX5BYFf+FkSNoYMbpAXfoVfjkDhIPA7aUOku4+9C7+EN3TDez+duVYpRtzMXIUb2ue9Y89ckBrq6n2AlblyciPg3jBo18uCUXlfzYJReOfOkkF7gxYM3g27YvB+2zWDFlcXDN4zvGLwruQ1Y2OhcJN4uoB2G4776Zc2+qY13J69Te+5NQeb5nYb8m66521QvWnPF1PrSLyfRMxHHBJvWLGpR+IdMdKxRSdFbgMb6kApcBto8q10KEOPCBlutQitE4gpU41bhDyNhT6scW+GrYP5eM7mYo6Yr11E3tmmBLhqFnnrnE3FI+/Nk6NV+iDw5r+hK5nbV6zAI6YkGXn74oKwicILFtoib8AU8xWRyDs8rSQSeQvp0MYECVT8KtjRsLkkKAW71ja3EJUApbzNNUex1WfeJ7wg8IuaCwK/CboksKttVvza3GUdkiMUt/llWTFfmNncxh0apSCBFW2t4hfCTvGDipASWJVXzFdvgucLl8xnIfiVAiXAHWF+RVvMd3WEr3PEgmqnLfmKhzCgc4cYp+s48nYqr1uluXGhOWDP7ebkBCxBVB7FGKm8cFl6+506/cfrR+4+PH/69PKNvNvf40fx9EcvH9RLP/8L);fillColor=none;" parent="1" vertex="1">
                    <mxGeometry x="48" y="17.666666666666742" width="235" height="253.33333333333334" as="geometry"/>
                </mxCell>
            </root>
        </mxGraphModel>
    </diagram>
</mxfile>